<svg width="256" height="256" viewBox="0 0 256 256" fill="none" xmlns="http://www.w3.org/2000/svg">
  <!-- Background -->
  <rect width="256" height="256" rx="32" fill="#1a1a1a"/>
  
  <!-- Document base -->
  <rect x="48" y="32" width="128" height="176" rx="8" fill="#2d2d2d" stroke="#404040" stroke-width="2"/>
  
  <!-- Document lines -->
  <line x1="64" y1="56" x2="144" y2="56" stroke="#666666" stroke-width="2" stroke-linecap="round"/>
  <line x1="64" y1="72" x2="160" y2="72" stroke="#666666" stroke-width="2" stroke-linecap="round"/>
  <line x1="64" y1="88" x2="128" y2="88" stroke="#666666" stroke-width="2" stroke-linecap="round"/>
  <line x1="64" y1="104" x2="152" y2="104" stroke="#666666" stroke-width="2" stroke-linecap="round"/>
  <line x1="64" y1="120" x2="136" y2="120" stroke="#666666" stroke-width="2" stroke-linecap="round"/>
  
  <!-- Markdown symbol -->
  <text x="64" y="152" font-family="JetBrains Mono, monospace" font-size="16" font-weight="bold" fill="#0ea5e9">#</text>
  <text x="80" y="152" font-family="JetBrains Mono, monospace" font-size="14" fill="#94a3b8">Markdown</text>
  
  <!-- Plus symbol -->
  <circle cx="192" cy="192" r="24" fill="#0ea5e9"/>
  <line x1="184" y1="192" x2="200" y2="192" stroke="white" stroke-width="3" stroke-linecap="round"/>
  <line x1="192" y1="184" x2="192" y2="200" stroke="white" stroke-width="3" stroke-linecap="round"/>
  
  <!-- Accent elements -->
  <rect x="176" y="48" width="32" height="4" rx="2" fill="#0ea5e9"/>
  <rect x="176" y="56" width="24" height="4" rx="2" fill="#0ea5e9" opacity="0.6"/>
  <rect x="176" y="64" width="28" height="4" rx="2" fill="#0ea5e9" opacity="0.3"/>
</svg>